<?xml version="1.0" encoding="UTF-8" standalone="no"?>
<!-- Created with Inkscape (http://www.inkscape.org/) -->

<svg
   width="512"
   height="512"
   viewBox="0 0 512 512"
   version="1.1"
   id="svg1"
   xml:space="preserve"
   inkscape:version="1.3.2 (091e20e, 2023-11-25)"
   sodipodi:docname="foreground.svg"
   xmlns:inkscape="http://www.inkscape.org/namespaces/inkscape"
   xmlns:sodipodi="http://sodipodi.sourceforge.net/DTD/sodipodi-0.dtd"
   xmlns:xlink="http://www.w3.org/1999/xlink"
   xmlns="http://www.w3.org/2000/svg"
   xmlns:svg="http://www.w3.org/2000/svg"><sodipodi:namedview
     id="namedview1"
     pagecolor="#505050"
     bordercolor="#ffffff"
     borderopacity="1"
     inkscape:showpageshadow="0"
     inkscape:pageopacity="0"
     inkscape:pagecheckerboard="1"
     inkscape:deskcolor="#505050"
     inkscape:document-units="px"
     inkscape:zoom="1.689453"
     inkscape:cx="156.55955"
     inkscape:cy="274.64511"
     inkscape:window-width="2560"
     inkscape:window-height="1387"
     inkscape:window-x="2560"
     inkscape:window-y="25"
     inkscape:window-maximized="0"
     inkscape:current-layer="svg1" /><defs
     id="defs1"><linearGradient
       id="linearGradient43"
       inkscape:collect="always"><stop
         style="stop-color:#000000;stop-opacity:0.21176471;"
         offset="0"
         id="stop43" /><stop
         style="stop-color:#000000;stop-opacity:0;"
         offset="1"
         id="stop44" /></linearGradient><linearGradient
       id="linearGradient41"
       inkscape:collect="always"><stop
         style="stop-color:#000000;stop-opacity:0.21176471;"
         offset="0"
         id="stop41" /><stop
         style="stop-color:#000000;stop-opacity:0;"
         offset="1"
         id="stop42" /></linearGradient><linearGradient
       id="linearGradient39"
       inkscape:collect="always"><stop
         style="stop-color:#000000;stop-opacity:0.21176471;"
         offset="0"
         id="stop39" /><stop
         style="stop-color:#000000;stop-opacity:0;"
         offset="1"
         id="stop40" /></linearGradient><linearGradient
       id="linearGradient37"
       inkscape:collect="always"><stop
         style="stop-color:#000000;stop-opacity:0.21176471;"
         offset="0"
         id="stop37" /><stop
         style="stop-color:#000000;stop-opacity:0;"
         offset="1"
         id="stop38" /></linearGradient><linearGradient
       id="linearGradient35"
       inkscape:collect="always"><stop
         style="stop-color:#000000;stop-opacity:0.21176471;"
         offset="0"
         id="stop35" /><stop
         style="stop-color:#000000;stop-opacity:0;"
         offset="1"
         id="stop36" /></linearGradient><linearGradient
       id="linearGradient33"
       inkscape:collect="always"><stop
         style="stop-color:#000000;stop-opacity:0.21176471;"
         offset="0"
         id="stop33" /><stop
         style="stop-color:#000000;stop-opacity:0;"
         offset="1"
         id="stop34" /></linearGradient><linearGradient
       id="linearGradient31"
       inkscape:collect="always"><stop
         style="stop-color:#000000;stop-opacity:0.21142857;"
         offset="0"
         id="stop31" /><stop
         style="stop-color:#000000;stop-opacity:0;"
         offset="1"
         id="stop32" /></linearGradient><linearGradient
       id="linearGradient11"
       inkscape:collect="always"><stop
         style="stop-color:#1ec1d8;stop-opacity:1;"
         offset="0"
         id="stop11" /><stop
         style="stop-color:#045f97;stop-opacity:1;"
         offset="1"
         id="stop12" /></linearGradient><linearGradient
       id="linearGradient8"
       inkscape:collect="always"><stop
         style="stop-color:#23e3df;stop-opacity:1;"
         offset="0"
         id="stop9" /><stop
         style="stop-color:#096ea4;stop-opacity:1;"
         offset="1"
         id="stop10" /></linearGradient><linearGradient
       id="linearGradient5"
       inkscape:collect="always"><stop
         style="stop-color:#ef4e49;stop-opacity:1;"
         offset="0"
         id="stop5" /><stop
         style="stop-color:#b0114d;stop-opacity:1;"
         offset="0.36085626"
         id="stop8" /><stop
         style="stop-color:#ac0d4e;stop-opacity:1;"
         offset="0.72782868"
         id="stop7" /><stop
         style="stop-color:#750c56;stop-opacity:1;"
         offset="1"
         id="stop6" /></linearGradient><linearGradient
       inkscape:collect="always"
       xlink:href="#linearGradient5"
       id="linearGradient6"
       x1="208.78926"
       y1="164.28339"
       x2="231.84241"
       y2="260.17239"
       gradientUnits="userSpaceOnUse" /><linearGradient
       inkscape:collect="always"
       xlink:href="#linearGradient8"
       id="linearGradient10"
       x1="246.44278"
       y1="138.21901"
       x2="267.12833"
       y2="289.45139"
       gradientUnits="userSpaceOnUse" /><linearGradient
       inkscape:collect="always"
       xlink:href="#linearGradient11"
       id="linearGradient12"
       x1="287.215"
       y1="161.99817"
       x2="301.68552"
       y2="271.79703"
       gradientUnits="userSpaceOnUse" /><linearGradient
       inkscape:collect="always"
       xlink:href="#linearGradient31"
       id="linearGradient32"
       x1="303.78983"
       y1="355.79114"
       x2="453.4675"
       y2="545.80908"
       gradientUnits="userSpaceOnUse" /><linearGradient
       inkscape:collect="always"
       xlink:href="#linearGradient33"
       id="linearGradient34"
       x1="430.67953"
       y1="190.01799"
       x2="582.19165"
       y2="344.04138"
       gradientUnits="userSpaceOnUse" /><linearGradient
       inkscape:collect="always"
       xlink:href="#linearGradient35"
       id="linearGradient36"
       x1="372.45633"
       y1="97.564308"
       x2="517.24933"
       y2="245.30957"
       gradientUnits="userSpaceOnUse" /><linearGradient
       inkscape:collect="always"
       xlink:href="#linearGradient37"
       id="linearGradient38"
       x1="95.427536"
       y1="209.27092"
       x2="262.00717"
       y2="358.27179"
       gradientUnits="userSpaceOnUse" /><linearGradient
       inkscape:collect="always"
       xlink:href="#linearGradient39"
       id="linearGradient40"
       x1="148.1638"
       y1="162.81277"
       x2="231.87218"
       y2="271.63364"
       gradientUnits="userSpaceOnUse" /><linearGradient
       inkscape:collect="always"
       xlink:href="#linearGradient41"
       id="linearGradient42"
       x1="146.90817"
       y1="99.82222"
       x2="251.12511"
       y2="221.61789"
       gradientUnits="userSpaceOnUse" /><linearGradient
       inkscape:collect="always"
       xlink:href="#linearGradient43"
       id="linearGradient44"
       x1="372.08368"
       y1="166.16109"
       x2="574.65796"
       y2="365.80554"
       gradientUnits="userSpaceOnUse" /></defs><g
     inkscape:groupmode="layer"
     id="layer7"
     inkscape:label="foreground"
     style="display:inline;opacity:1"><g
       inkscape:groupmode="layer"
       id="layer4"
       inkscape:label="shadows"
       style="display:inline"><path
         id="path55"
         style="display:inline;opacity:1;fill:url(#linearGradient36);stroke-width:1.05588"
         d="m 511.48242,239.70312 v -24.91796 l -132.2832,-124.380863 -21.76367,10.882813 72.17578,73.9375 1.90625,-21.61914 z" /><path
         style="opacity:1;fill:url(#linearGradient44);stroke:none;stroke-width:1.05588;-inkscape-stroke:none"
         d="m 377.52472,131.00359 50.38942,51.49631 -1.98966,71.70857 -60.53747,-56.65673 z"
         id="path25"
         sodipodi:nodetypes="ccccc" /><path
         id="path53"
         style="display:inline;opacity:1;fill:url(#linearGradient34);stroke-width:1.05588"
         d="M 511.48242,359.36328 V 239.70312 l -79.96484,-86.09765 -1.90625,21.61914 -8.53125,96.78906 3.65625,3.41211 6.77148,18.76758 z" /><path
         style="opacity:1;fill:url(#linearGradient42);stroke:none;stroke-width:1.05588;-inkscape-stroke:none"
         d="M 152.34922,88.312325 265.35552,208.85237 242.33571,237.73175 133.93338,103.79837 Z"
         id="path27"
         sodipodi:nodetypes="ccccc" /><path
         d="m 150.67578,127.6543 -11.87305,71.62304 91.69336,93.03321 18.11719,-37.41797 z"
         style="opacity:1;fill:url(#linearGradient40);stroke-width:1.05588"
         id="path50" /><path
         id="path52"
         style="display:inline;opacity:1;fill:url(#linearGradient38);stroke-width:1.05588"
         d="M 96.263672,156.11523 84.126953,298.83789 224.63867,443.45703 277.60742,340.11133 230.49609,292.31055 138.80273,199.27734 Z" /><path
         style="display:inline;opacity:1;fill:none;stroke:none;stroke-width:1.05588;-inkscape-stroke:none"
         d="m 156.1161,234.38342 167.83527,123.88838 -52.73627,33.90189 -20.50855,51.0621 -95.42753,-94.17191 z"
         id="path30" /><path
         id="path54"
         style="display:inline;opacity:1;fill:url(#linearGradient32);stroke-width:1.05588"
         d="M 241.58398,511.48242 H 511.48242 V 359.36328 l -79.97461,-65.16992 -6.77148,-18.76758 -3.65625,-3.41211 -44.81055,-41.8164 -49.80664,123.88867 -46.87695,12.97461 -32.64649,63.20117 -59.01367,25.53125 z" /></g><g
       inkscape:groupmode="layer"
       id="layer2"
       inkscape:label="microphone"
       style="display:inline"><path
         id="path3"
         style="font-variation-settings:normal;display:inline;opacity:1;vector-effect:none;fill:#ffffff;fill-opacity:1;stroke-width:1.0135;stroke-linecap:butt;stroke-linejoin:miter;stroke-miterlimit:4;stroke-dasharray:none;stroke-dashoffset:0;stroke-opacity:1;-inkscape-stroke:none"
         d="m 142.94141,227.29102 c -10.21643,-5.4e-4 -18.49861,8.57984 -18.49805,19.16406 -4.57072,70.6953 32.79453,133.91316 109.17969,149.04687 v 31.59571 h -32.91016 c -10.21644,-2.3e-4 -18.49801,8.28355 -18.49805,18.5 -2.3e-4,10.21663 8.28141,18.49827 18.49805,18.49804 h 111.14844 c 10.21643,-5e-5 18.4983,-8.28161 18.49805,-18.49804 -3e-5,-10.21625 -8.28181,-18.49997 -18.49805,-18.5 h -32.73242 v -31.43164 c 73.03623,-13.51644 112.15374,-80.13157 109.33203,-137.89063 l 0.12695,-11.02344 c 5.6e-4,-10.58422 -8.28162,-19.1646 -18.49805,-19.16406 -10.21566,5.8e-4 -18.49665,8.58063 -18.49609,19.16406 3.78077,53.5589 -33.43659,111.9793 -94.69584,111.97938 -61.25924,9e-5 -98.60595,-50.74448 -95.46041,-112.27625 5.6e-4,-10.58343 -8.28043,-19.16348 -18.49609,-19.16406 z"
         sodipodi:nodetypes="sccccccccsccccsczcs"
         inkscape:label="mic stand" /><path
         id="path8"
         style="font-variation-settings:normal;display:inline;opacity:1;vector-effect:none;fill:#e1f1ee;fill-opacity:1;stroke-width:1.0135;stroke-linecap:butt;stroke-linejoin:miter;stroke-miterlimit:4;stroke-dasharray:none;stroke-dashoffset:0;stroke-opacity:1;-inkscape-stroke:none"
         inkscape:label="mic stand_r"
         d="M 256.5918,358.72266 V 464.0957 h 55.26953 c 10.21642,-5e-5 18.49829,-8.28162 18.49805,-18.49804 -3e-5,-10.21624 -8.28182,-18.49997 -18.49805,-18.5 h -32.73242 v -31.43164 c 73.03615,-13.51643 112.15373,-80.13163 109.33203,-137.89063 l 0.12695,-11.02344 c 5.6e-4,-10.58421 -8.28163,-19.1646 -18.49805,-19.16406 -10.21565,5.8e-4 -18.49665,8.58064 -18.49609,19.16406 3.78077,53.55885 -33.43612,111.97844 -94.69531,111.97852 -0.10346,0 -0.20332,-0.008 -0.30664,-0.008 z" /><g
         inkscape:groupmode="layer"
         id="layer5"
         inkscape:label="mic"><rect
           style="font-variation-settings:normal;display:inline;opacity:1;vector-effect:none;fill:url(#linearGradient12);stroke-width:1.09969;stroke-linecap:butt;stroke-linejoin:miter;stroke-miterlimit:4;stroke-dasharray:none;stroke-dashoffset:0;stroke-opacity:1;-inkscape-stroke:none"
           id="rect4-4"
           width="32.227718"
           height="174.33394"
           x="278.63235"
           y="123.66358"
           inkscape:label="mic hole 3" /><rect
           style="font-variation-settings:normal;display:inline;opacity:1;vector-effect:none;fill:url(#linearGradient10);stroke-width:1.18072;stroke-linecap:butt;stroke-linejoin:miter;stroke-miterlimit:4;stroke-dasharray:none;stroke-dashoffset:0;stroke-opacity:1;-inkscape-stroke:none"
           id="rect4-7"
           width="32.227718"
           height="200.96979"
           x="240.5237"
           y="112.0185"
           inkscape:label="mic hole 2" /><rect
           style="font-variation-settings:normal;display:inline;opacity:1;vector-effect:none;fill:url(#linearGradient6);fill-opacity:1;stroke:#f0f4f5;stroke-width:1.09969;stroke-linecap:butt;stroke-linejoin:miter;stroke-miterlimit:4;stroke-dasharray:none;stroke-dashoffset:0;stroke-opacity:1;-inkscape-stroke:none"
           id="rect4"
           width="32.227718"
           height="174.33394"
           x="201.39041"
           y="125.06093"
           inkscape:label="mic hole1" /><path
           id="path1"
           style="font-variation-settings:normal;opacity:1;vector-effect:none;fill:#ffffff;fill-opacity:1;stroke-width:1.05588;stroke-linecap:butt;stroke-linejoin:miter;stroke-miterlimit:4;stroke-dasharray:none;stroke-dashoffset:0;stroke-opacity:1;-inkscape-stroke:none;stop-color:#000000;stop-opacity:1"
           d="m 255.9375,93.039062 c -40.14941,1.41e-4 -72.69713,32.547858 -72.69727,72.697268 v 92.63281 c -9.4e-4,40.15018 32.54709,72.69908 72.69727,72.69922 40.15094,9.4e-4 72.70016,-32.54828 72.69922,-72.69922 V 165.73633 C 328.63658,125.58615 296.08768,93.038129 255.9375,93.039062 Z m 0.38281,36.869138 c 5.24942,-1.3e-4 9.50584,4.25647 9.50586,9.50586 v 146.87696 c 1.3e-4,5.24949 -4.25634,9.50597 -9.50586,9.50586 -5.24939,-2e-5 -9.50402,-4.25647 -9.5039,-9.50586 V 139.41406 c 2e-5,-5.2493 4.25461,-9.50584 9.5039,-9.50586 z m 38.51758,25.29688 c 5.25794,-1.3e-4 9.52146,4.2616 9.52149,9.51953 v 104.2832 c 1.1e-4,5.25802 -4.26345,9.51965 -9.52149,9.51953 -5.25792,-2e-5 -9.51965,-4.26159 -9.51953,-9.51953 v -104.2832 c 1e-5,-5.25783 4.26171,-9.51952 9.51953,-9.51953 z m -77.09766,0.25586 c 5.25794,-1.3e-4 9.51951,4.2616 9.51954,9.51953 v 104.2832 c 1.2e-4,5.25802 -4.2615,9.52161 -9.51954,9.52149 -5.2579,-2e-5 -9.5216,-4.26355 -9.52148,-9.52149 v -104.2832 c 1e-5,-5.25783 4.26368,-9.51952 9.52148,-9.51953 z"
           inkscape:label="mic" /></g></g><g
       inkscape:groupmode="layer"
       id="layer3"
       inkscape:label="lines"
       style="display:inline"><path
         id="path1-2-0-2"
         style="font-variation-settings:normal;opacity:1;vector-effect:none;fill:#ffffff;fill-opacity:1;stroke-width:0.170049;stroke-linecap:butt;stroke-linejoin:miter;stroke-miterlimit:4;stroke-dasharray:none;stroke-dashoffset:0;stroke-opacity:1;-inkscape-stroke:none;stop-color:#000000"
         d="m 422.98734,147.57876 c -6.46606,2e-5 -11.70784,5.24179 -11.70786,11.70785 v 129.15662 c -1.5e-4,6.46619 5.24167,11.70815 11.70786,11.70818 6.46631,1.5e-4 11.70833,-5.24187 11.70818,-11.70818 V 159.28661 c -3e-5,-6.46618 -5.24199,-11.70801 -11.70818,-11.70785 z"
         sodipodi:nodetypes="ccccccc"
         inkscape:label="line4" /><path
         id="path1-2"
         style="font-variation-settings:normal;opacity:1;vector-effect:none;fill:#ffffff;fill-opacity:1;stroke-width:0.170049;stroke-linecap:butt;stroke-linejoin:miter;stroke-miterlimit:4;stroke-dasharray:none;stroke-dashoffset:0;stroke-opacity:1;-inkscape-stroke:none;stop-color:#000000"
         d="m 368.97607,122.50174 c -6.46606,2e-5 -11.70784,5.24179 -11.70786,11.70785 v 57.97974 c -1.5e-4,6.46619 5.24167,11.70815 11.70786,11.70818 6.46631,1.5e-4 11.70833,-5.24187 11.70818,-11.70818 v -57.97974 c -3e-5,-6.46618 -5.24199,-11.70801 -11.70818,-11.70785 z"
         sodipodi:nodetypes="ccccccc"
         inkscape:label="line3" /><path
         id="path1-2-8"
         style="font-variation-settings:normal;opacity:1;vector-effect:none;fill:#ffffff;fill-opacity:1;stroke-width:0.170049;stroke-linecap:butt;stroke-linejoin:miter;stroke-miterlimit:4;stroke-dasharray:none;stroke-dashoffset:0;stroke-opacity:1;-inkscape-stroke:none;stop-color:#000000"
         d="m 143.16913,122.43006 c -6.46606,2e-5 -11.70784,5.24179 -11.70786,11.70785 v 57.97974 c -1.5e-4,6.46619 5.24167,11.70815 11.70786,11.70818 6.46631,1.5e-4 11.70833,-5.24187 11.70818,-11.70818 v -57.97974 c -3e-5,-6.46618 -5.24199,-11.70801 -11.70818,-11.70785 z"
         sodipodi:nodetypes="ccccccc"
         inkscape:label="line2" /><path
         id="path1-2-0"
         style="font-variation-settings:normal;opacity:1;vector-effect:none;fill:#ffffff;fill-opacity:1;stroke-width:0.170049;stroke-linecap:butt;stroke-linejoin:miter;stroke-miterlimit:4;stroke-dasharray:none;stroke-dashoffset:0;stroke-opacity:1;-inkscape-stroke:none;stop-color:#000000"
         d="m 89.34023,147.52023 c -6.46606,2e-5 -11.70784,5.24179 -11.70786,11.70785 V 288.3847 c -1.5e-4,6.46619 5.24167,11.70815 11.70786,11.70818 6.46631,1.5e-4 11.70833,-5.24187 11.70818,-11.70818 V 159.22808 c -3e-5,-6.46618 -5.24199,-11.70801 -11.70818,-11.70785 z"
         sodipodi:nodetypes="ccccccc"
         inkscape:label="line1" /><circle
         style="font-variation-settings:normal;opacity:1;vector-effect:none;fill:#ffffff;fill-opacity:1;stroke-width:1.17137;stroke-linecap:butt;stroke-linejoin:miter;stroke-miterlimit:4;stroke-dasharray:none;stroke-dashoffset:0;stroke-opacity:1;-inkscape-stroke:none"
         id="path2"
         cx="368.64743"
         cy="94.964157"
         r="13.132948"
         inkscape:label="point2" /><circle
         style="font-variation-settings:normal;opacity:1;vector-effect:none;fill:#ffffff;fill-opacity:1;stroke-width:1.17137;stroke-linecap:butt;stroke-linejoin:miter;stroke-miterlimit:4;stroke-dasharray:none;stroke-dashoffset:0;stroke-opacity:1;-inkscape-stroke:none"
         id="path2-0"
         cx="143.06274"
         cy="95.062744"
         r="13.132948"
         inkscape:label="point1" /></g></g></svg>
