<?xml version="1.0" encoding="UTF-8" standalone="no"?>
<!-- Created with Inkscape (http://www.inkscape.org/) -->

<svg
   width="512"
   height="512"
   viewBox="0 0 512 512"
   version="1.1"
   id="svg1"
   xml:space="preserve"
   inkscape:version="1.3.2 (091e20e, 2023-11-25)"
   sodipodi:docname="podcast_icon_outline.svg"
   xmlns:inkscape="http://www.inkscape.org/namespaces/inkscape"
   xmlns:sodipodi="http://sodipodi.sourceforge.net/DTD/sodipodi-0.dtd"
   xmlns="http://www.w3.org/2000/svg"
   xmlns:svg="http://www.w3.org/2000/svg"><sodipodi:namedview
     id="namedview1"
     pagecolor="#505050"
     bordercolor="#ffffff"
     borderopacity="1"
     inkscape:showpageshadow="0"
     inkscape:pageopacity="0"
     inkscape:pagecheckerboard="1"
     inkscape:deskcolor="#505050"
     inkscape:document-units="px"
     inkscape:zoom="1.689453"
     inkscape:cx="156.55955"
     inkscape:cy="274.64511"
     inkscape:window-width="2560"
     inkscape:window-height="1387"
     inkscape:window-x="2560"
     inkscape:window-y="25"
     inkscape:window-maximized="0"
     inkscape:current-layer="layer2" /><defs
     id="defs1" /><g
     inkscape:groupmode="layer"
     id="layer7"
     inkscape:label="foreground"
     style="display:inline;opacity:1"><g
       inkscape:groupmode="layer"
       id="layer2"
       inkscape:label="microphone"
       style="display:inline"><path
         id="path3"
         style="font-variation-settings:normal;display:inline;opacity:1;vector-effect:none;fill:#ffffff;fill-opacity:1;stroke-width:1.0135;stroke-linecap:butt;stroke-linejoin:miter;stroke-miterlimit:4;stroke-dasharray:none;stroke-dashoffset:0;stroke-opacity:1;-inkscape-stroke:none"
         d="m 142.94141,227.29102 c -10.21643,-5.4e-4 -18.49861,8.57984 -18.49805,19.16406 -4.57072,70.6953 32.79453,133.91316 109.17969,149.04687 v 31.59571 h -32.91016 c -10.21644,-2.3e-4 -18.49801,8.28355 -18.49805,18.5 -2.3e-4,10.21663 8.28141,18.49827 18.49805,18.49804 h 111.14844 c 10.21643,-5e-5 18.4983,-8.28161 18.49805,-18.49804 -3e-5,-10.21625 -8.28181,-18.49997 -18.49805,-18.5 h -32.73242 v -31.43164 c 73.03623,-13.51644 112.15374,-80.13157 109.33203,-137.89063 l 0.12695,-11.02344 c 5.6e-4,-10.58422 -8.28162,-19.1646 -18.49805,-19.16406 -10.21566,5.8e-4 -18.49665,8.58063 -18.49609,19.16406 3.78077,53.5589 -33.43659,111.9793 -94.69584,111.97938 -61.25924,9e-5 -98.60595,-50.74448 -95.46041,-112.27625 5.6e-4,-10.58343 -8.28043,-19.16348 -18.49609,-19.16406 z"
         sodipodi:nodetypes="sccccccccsccccsczcs"
         inkscape:label="mic stand" /><g
         inkscape:groupmode="layer"
         id="layer5"
         inkscape:label="mic"
         style="display:inline"><path
           id="path1"
           style="font-variation-settings:normal;opacity:1;vector-effect:none;fill:#ffffff;fill-opacity:1;stroke-width:1.05588;stroke-linecap:butt;stroke-linejoin:miter;stroke-miterlimit:4;stroke-dasharray:none;stroke-dashoffset:0;stroke-opacity:1;-inkscape-stroke:none;stop-color:#000000;stop-opacity:1"
           d="m 255.9375,93.039062 c -40.14941,1.41e-4 -72.69713,32.547858 -72.69727,72.697268 v 92.63281 c -9.4e-4,40.15018 32.54709,72.69908 72.69727,72.69922 40.15094,9.4e-4 72.70016,-32.54828 72.69922,-72.69922 V 165.73633 C 328.63658,125.58615 296.08768,93.038129 255.9375,93.039062 Z m 0.38281,36.869138 c 5.24942,-1.3e-4 9.50584,4.25647 9.50586,9.50586 v 146.87696 c 1.3e-4,5.24949 -4.25634,9.50597 -9.50586,9.50586 -5.24939,-2e-5 -9.50402,-4.25647 -9.5039,-9.50586 V 139.41406 c 2e-5,-5.2493 4.25461,-9.50584 9.5039,-9.50586 z m 38.51758,25.29688 c 5.25794,-1.3e-4 9.52146,4.2616 9.52149,9.51953 v 104.2832 c 1.1e-4,5.25802 -4.26345,9.51965 -9.52149,9.51953 -5.25792,-2e-5 -9.51965,-4.26159 -9.51953,-9.51953 v -104.2832 c 1e-5,-5.25783 4.26171,-9.51952 9.51953,-9.51953 z m -77.09766,0.25586 c 5.25794,-1.3e-4 9.51951,4.2616 9.51954,9.51953 v 104.2832 c 1.2e-4,5.25802 -4.2615,9.52161 -9.51954,9.52149 -5.2579,-2e-5 -9.5216,-4.26355 -9.52148,-9.52149 v -104.2832 c 1e-5,-5.25783 4.26368,-9.51952 9.52148,-9.51953 z"
           inkscape:label="mic" /></g></g><g
       inkscape:groupmode="layer"
       id="layer3"
       inkscape:label="lines"
       style="display:inline"><path
         id="path1-2-0-2"
         style="font-variation-settings:normal;opacity:1;vector-effect:none;fill:#ffffff;fill-opacity:1;stroke-width:0.170049;stroke-linecap:butt;stroke-linejoin:miter;stroke-miterlimit:4;stroke-dasharray:none;stroke-dashoffset:0;stroke-opacity:1;-inkscape-stroke:none;stop-color:#000000"
         d="m 422.98734,147.57876 c -6.46606,2e-5 -11.70784,5.24179 -11.70786,11.70785 v 129.15662 c -1.5e-4,6.46619 5.24167,11.70815 11.70786,11.70818 6.46631,1.5e-4 11.70833,-5.24187 11.70818,-11.70818 V 159.28661 c -3e-5,-6.46618 -5.24199,-11.70801 -11.70818,-11.70785 z"
         sodipodi:nodetypes="ccccccc"
         inkscape:label="line4" /><path
         id="path1-2"
         style="font-variation-settings:normal;opacity:1;vector-effect:none;fill:#ffffff;fill-opacity:1;stroke-width:0.170049;stroke-linecap:butt;stroke-linejoin:miter;stroke-miterlimit:4;stroke-dasharray:none;stroke-dashoffset:0;stroke-opacity:1;-inkscape-stroke:none;stop-color:#000000"
         d="m 368.97607,122.50174 c -6.46606,2e-5 -11.70784,5.24179 -11.70786,11.70785 v 57.97974 c -1.5e-4,6.46619 5.24167,11.70815 11.70786,11.70818 6.46631,1.5e-4 11.70833,-5.24187 11.70818,-11.70818 v -57.97974 c -3e-5,-6.46618 -5.24199,-11.70801 -11.70818,-11.70785 z"
         sodipodi:nodetypes="ccccccc"
         inkscape:label="line3" /><path
         id="path1-2-8"
         style="font-variation-settings:normal;opacity:1;vector-effect:none;fill:#ffffff;fill-opacity:1;stroke-width:0.170049;stroke-linecap:butt;stroke-linejoin:miter;stroke-miterlimit:4;stroke-dasharray:none;stroke-dashoffset:0;stroke-opacity:1;-inkscape-stroke:none;stop-color:#000000"
         d="m 143.16913,122.43006 c -6.46606,2e-5 -11.70784,5.24179 -11.70786,11.70785 v 57.97974 c -1.5e-4,6.46619 5.24167,11.70815 11.70786,11.70818 6.46631,1.5e-4 11.70833,-5.24187 11.70818,-11.70818 v -57.97974 c -3e-5,-6.46618 -5.24199,-11.70801 -11.70818,-11.70785 z"
         sodipodi:nodetypes="ccccccc"
         inkscape:label="line2" /><path
         id="path1-2-0"
         style="font-variation-settings:normal;opacity:1;vector-effect:none;fill:#ffffff;fill-opacity:1;stroke-width:0.170049;stroke-linecap:butt;stroke-linejoin:miter;stroke-miterlimit:4;stroke-dasharray:none;stroke-dashoffset:0;stroke-opacity:1;-inkscape-stroke:none;stop-color:#000000"
         d="m 89.34023,147.52023 c -6.46606,2e-5 -11.70784,5.24179 -11.70786,11.70785 V 288.3847 c -1.5e-4,6.46619 5.24167,11.70815 11.70786,11.70818 6.46631,1.5e-4 11.70833,-5.24187 11.70818,-11.70818 V 159.22808 c -3e-5,-6.46618 -5.24199,-11.70801 -11.70818,-11.70785 z"
         sodipodi:nodetypes="ccccccc"
         inkscape:label="line1" /><circle
         style="font-variation-settings:normal;opacity:1;vector-effect:none;fill:#ffffff;fill-opacity:1;stroke-width:1.17137;stroke-linecap:butt;stroke-linejoin:miter;stroke-miterlimit:4;stroke-dasharray:none;stroke-dashoffset:0;stroke-opacity:1;-inkscape-stroke:none"
         id="path2"
         cx="368.64743"
         cy="94.964157"
         r="13.132948"
         inkscape:label="point2" /><circle
         style="font-variation-settings:normal;opacity:1;vector-effect:none;fill:#ffffff;fill-opacity:1;stroke-width:1.17137;stroke-linecap:butt;stroke-linejoin:miter;stroke-miterlimit:4;stroke-dasharray:none;stroke-dashoffset:0;stroke-opacity:1;-inkscape-stroke:none"
         id="path2-0"
         cx="143.06274"
         cy="95.062744"
         r="13.132948"
         inkscape:label="point1" /></g></g></svg>
